<?xml version="1.0" encoding="UTF-8"?>
<svg version="1.1" xmlns="http://www.w3.org/2000/svg" width="651" height="424">
<path d="M0 0 C214.83 0 429.66 0 651 0 C651 139.92 651 279.84 651 424 C436.17 424 221.34 424 0 424 C0 284.08 0 144.16 0 0 Z " fill="#FEFEFE" transform="translate(0,0)"/>
<path d="M0 0 C0.99 0.33 1.98 0.66 3 1 C3.495 4.96 3.495 4.96 4 9 C5.41601714 9.48108275 6.83284437 9.95978141 8.25 10.4375 C9.43335938 10.83775391 9.43335938 10.83775391 10.640625 11.24609375 C11.80851562 11.61927734 11.80851562 11.61927734 13 12 C13.71542969 12.2371875 14.43085938 12.474375 15.16796875 12.71875 C15.77253906 12.8115625 16.37710938 12.904375 17 13 C18.3743291 11.70896357 19.70896357 10.3743291 21 9 C21.99 9 22.98 9 24 9 C23.56671758 11.51303805 23.3219867 12.71516561 21.375 14.4375 C20.92125 14.953125 20.4675 15.46875 20 16 C20.20804169 18.70454194 20.79174812 20.60799646 22.0625 23 C23.21088963 25.44989787 23.14853426 27.32638335 23 30 C25.97 30 28.94 30 32 30 C32 30.99 32 31.98 32 33 C29.03 33 26.06 33 23 33 C22.814375 34.8871875 22.814375 34.8871875 22.625 36.8125 C22.30131941 40.10325263 21.93395001 41.09907498 20 44 C20.29609803 47.84927445 21.51907739 50.08761258 24 53 C19.31908701 53 18.37898396 52.00354129 15 49 C15.32097656 49.66386719 15.64195312 50.32773438 15.97265625 51.01171875 C18.18475963 57.44616393 18.23659182 66.20741706 16.125 72.68359375 C13.49391049 77.26203569 9.9661894 80.12493936 5 82 C0.6238239 82.58745573 -3.7147414 82.5607476 -8.125 82.53125 C-9.38586426 82.5350769 -10.64672852 82.53890381 -11.94580078 82.54284668 C-14.60570817 82.54556289 -17.26413366 82.54025485 -19.92382812 82.52148438 C-23.3166504 82.49869464 -26.70820673 82.51183013 -30.10098267 82.53577423 C-33.3590325 82.5537821 -36.61693358 82.5411387 -39.875 82.53125 C-41.69088623 82.54339539 -41.69088623 82.54339539 -43.54345703 82.55578613 C-50.24615852 82.48152783 -54.58358631 82.07167474 -60 78 C-65.84595152 71.68005241 -66.44359137 66.84310613 -66.3203125 58.36328125 C-65.80189258 52.91987207 -64.01071201 50.82220776 -60 47.1875 C-58 46 -58 46 -55.875 45.625 C-55.25625 45.41875 -54.6375 45.2125 -54 45 C-53.32558869 43.3364521 -52.6599679 41.66933058 -52 40 C-49.36288204 37.40746885 -47.73560238 36.11306672 -44.0456543 35.54589844 C-42.4510437 35.57731934 -42.4510437 35.57731934 -40.82421875 35.609375 C-39.66728516 35.62226563 -38.51035156 35.63515625 -37.31835938 35.6484375 C-36.12017578 35.68195313 -34.92199219 35.71546875 -33.6875 35.75 C-32.46998047 35.76804688 -31.25246094 35.78609375 -29.99804688 35.8046875 C-26.99789578 35.85174869 -23.99935111 35.9174869 -21 36 C-21 35.01 -21 34.02 -21 33 C-23.97 33 -26.94 33 -30 33 C-30 32.01 -30 31.02 -30 30 C-27.03 30 -24.06 30 -21 30 C-20.896875 28.7625 -20.79375 27.525 -20.6875 26.25 C-20.26198318 22.7207134 -19.51887408 20.62839034 -17 18 C-18.37154504 15.04590299 -19.98863724 12.55991624 -22 10 C-20.68 10 -19.36 10 -18 10 C-17.505 10.515625 -17.01 11.03125 -16.5 11.5625 C-16.005 12.036875 -15.51 12.51125 -15 13 C-12.2047338 12.80033813 -10.01273459 11.56698886 -7.4375 10.4375 C-4 9 -4 9 -1 9 C-1.020625 7.700625 -1.04125 6.40125 -1.0625 5.0625 C-1.08399454 3.70834367 -1.07148199 2.35243917 -1 1 C-0.67 0.67 -0.34 0.34 0 0 Z M-50 43 C-50.433125 44.546875 -50.433125 44.546875 -50.875 46.125 C-51.24625 47.07375 -51.6175 48.0225 -52 49 C-55.4375 50.125 -55.4375 50.125 -59 51 C-61.50958983 53.39420639 -61.97614853 54.80380993 -62.3984375 58.27734375 C-62.39070312 59.48519531 -62.38296875 60.69304687 -62.375 61.9375 C-62.38273438 63.14277344 -62.39046875 64.34804687 -62.3984375 65.58984375 C-61.8222491 70.52133857 -60.12210624 73.01473598 -56.4375 76.25 C-52.92908634 78.76886109 -51.12770395 79.13488551 -46.85107422 79.19287109 C-45.23832108 79.21696548 -45.23832108 79.21696548 -43.59298706 79.24154663 C-38.65867713 79.28601981 -33.72450274 79.32708591 -28.79003906 79.35009766 C-26.19066397 79.36663147 -23.59133386 79.39388694 -20.9921875 79.43212891 C-17.24194777 79.48702676 -13.49277553 79.50879571 -9.7421875 79.5234375 C-8.0089473 79.55744156 -8.0089473 79.55744156 -6.24069214 79.59213257 C0.67523484 79.57411687 5.78828618 78.82634548 11 74 C14.36320773 68.63988769 14.79547039 63.1753622 14 57 C12.61451845 53.97713116 11.33128575 52.33128575 9 50 C8.030625 49.938125 7.06125 49.87625 6.0625 49.8125 C5.051875 49.544375 4.04125 49.27625 3 49 C1.375 45.625 1.375 45.625 0 42 C-1.79562806 39.98169435 -3.22429525 39.11434662 -5.90939331 38.71853638 C-8.33925981 38.5849022 -10.75004179 38.55810401 -13.18359375 38.56640625 C-14.52237328 38.55854347 -14.52237328 38.55854347 -15.88819885 38.55052185 C-17.77351848 38.54410601 -19.65887817 38.54543299 -21.54418945 38.55395508 C-24.42406758 38.56246033 -27.30195864 38.53370618 -30.18164062 38.50195312 C-32.01562441 38.50034083 -33.84961169 38.50091919 -35.68359375 38.50390625 C-36.54206406 38.49267227 -37.40053436 38.48143829 -38.28501892 38.46986389 C-43.41698124 38.52947871 -46.36202597 39.00809014 -50 43 Z " fill="#49ACC6" transform="translate(195,156)"/>
<path d="M0 0 C0.99 0.66 1.98 1.32 3 2 C3 2.66 3 3.32 3 4 C3.66 4 4.32 4 5 4 C3.95125002 6.62187494 3.35068687 7.79371361 0.875 9.25 C0.25625 9.4975 -0.3625 9.745 -1 10 C-1.53625 9.38125 -2.0725 8.7625 -2.625 8.125 C-6.3895616 4.75670804 -10.17738032 3.89901534 -15.125 3.6875 C-18.84572355 3.79543832 -18.84572355 3.79543832 -21.5 5 C-23.51937699 7.69250266 -23.52278672 9.76655214 -23.62890625 13.0625 C-23.13455153 15.20634533 -23.13455153 15.20634533 -20.93359375 16.59375 C-17.54149003 18.21979173 -14.08710962 19.39900596 -10.5 20.5 C-5.09361069 22.15938682 -0.07914277 23.7057735 3.8125 28 C5.65573318 32.6565891 5.77497943 37.06765431 5 42 C2.91522978 46.26391275 -0.75140686 49.03113977 -5 51 C-7.6875 51.6875 -7.6875 51.6875 -11 52 C-11.72058594 52.08765625 -12.44117188 52.1753125 -13.18359375 52.265625 C-20.70698549 52.79527178 -26.83203218 50.25511704 -33 46 C-34.34375 43.796875 -34.34375 43.796875 -35 42 C-33.68 40.68 -32.36 39.36 -31 38 C-28.44524038 39.22628462 -26.23445783 40.52056867 -23.875 42.125 C-19.42085664 44.68805232 -15.00966209 44.72898636 -10 44 C-7.51949071 42.83567931 -5.90574048 41.90574048 -4 40 C-3.92820036 38.48071962 -3.91607993 36.95832518 -3.9375 35.4375 C-3.94652344 34.61121094 -3.95554687 33.78492188 -3.96484375 32.93359375 C-3.97644531 32.29550781 -3.98804688 31.65742188 -4 31 C-5.216875 30.608125 -6.43375 30.21625 -7.6875 29.8125 C-9.46028362 29.21408017 -11.2308663 28.6091256 -13 28 C-14.09441406 27.62488281 -15.18882812 27.24976563 -16.31640625 26.86328125 C-24.16584003 24.03248431 -28.36123047 21.9581543 -33 15 C-33.54508806 10.32781665 -33.56590883 7.25869258 -31 3.25 C-22.51395932 -7.16685331 -10.98444339 -4.93399588 0 0 Z " fill="#2D5E89" transform="translate(284,176)"/>
<path d="M0 0 C4.94754234 2.84458286 7.84443678 7.09581034 9.625 12.4375 C10.1789756 19.50068884 8.27724611 24.43897928 4.9375 30.5 C2.625 32.4375 2.625 32.4375 0.58984375 32.515625 C-1.625 32.25 -1.625 32.25 -5.375 31.4375 C-5.601875 30.695 -5.82875 29.9525 -6.0625 29.1875 C-7.70852631 25.73868298 -9.14865387 24.49686987 -12.375 22.4375 C-15.1444048 21.83775177 -17.86038441 21.74308225 -20.6875 21.6875 C-21.42806641 21.65785156 -22.16863281 21.62820312 -22.93164062 21.59765625 C-24.74552046 21.52744155 -26.56026278 21.48014952 -28.375 21.4375 C-28.95555947 14.12245071 -27.99850974 9.26763301 -23.375 3.4375 C-16.91199096 -2.83542054 -8.13966631 -3.53230802 0 0 Z " fill="#FAFCFD" transform="translate(205.375,170.5625)"/>
<path d="M0 0 C4.00200155 1.86760072 6.41558039 4.91813563 8 9 C8.22705078 12.02441406 8.22705078 12.02441406 8.1953125 15.515625 C8.18886719 16.76601562 8.18242187 18.01640625 8.17578125 19.3046875 C8.15902344 20.60664063 8.14226562 21.90859375 8.125 23.25 C8.11597656 24.56742188 8.10695313 25.88484375 8.09765625 27.2421875 C8.07408533 30.49497462 8.04118022 33.74739589 8 37 C5.36 37 2.72 37 0 37 C-0.33 36.01 -0.66 35.02 -1 34 C-1.825 34.495 -2.65 34.99 -3.5 35.5 C-7.58432771 37.25042616 -10.62781896 37.78542174 -15 37 C-19.36859523 34.77448922 -22.05621805 32.53549123 -24 28 C-24.431566 24.54747196 -24.21887328 22.52286394 -22.875 19.3125 C-20.48979266 16.37074429 -18.51301995 15.42309836 -15 14 C-12.2811224 13.79402442 -9.82358378 13.71051864 -7.125 13.8125 C-6.43664062 13.82603516 -5.74828125 13.83957031 -5.0390625 13.85351562 C-3.35902999 13.8885163 -1.6794065 13.94231046 0 14 C-0.33 11.69 -0.66 9.38 -1 7 C-9.00938881 6.46073846 -9.00938881 6.46073846 -16 10 C-17.32 9.01 -18.64 8.02 -20 7 C-16.75860753 -1.54548925 -7.76644203 -1.05373837 0 0 Z " fill="#2D5E89" transform="translate(455,191)"/>
<path d="M0 0 C2.52115931 1.86113883 4.57402175 3.88014947 6.65625 6.22265625 C5.33625 7.54265625 4.01625 8.86265625 2.65625 10.22265625 C2.16125 9.95453125 1.66625 9.68640625 1.15625 9.41015625 C-6.30843373 5.86443148 -13.38548633 3.1637798 -21.58203125 5.99609375 C-27.49492004 9.13627197 -30.32479705 13.9601633 -32.34375 20.22265625 C-33.36764736 26.18882739 -32.39511479 31.98111324 -29.34375 37.22265625 C-26.40034764 40.82014803 -23.80290621 43.73627085 -19.34375 45.22265625 C-12.80476945 45.8670469 -7.74130488 45.60817635 -2.09765625 42.09765625 C-0.34375 41.22265625 -0.34375 41.22265625 3.65625 41.22265625 C5.40625 43.22265625 5.40625 43.22265625 6.65625 45.22265625 C2.38504565 50.65873451 -3.87631043 52.76004803 -10.53515625 53.6484375 C-19.75150339 54.02927829 -26.21087976 51.72661145 -33.21875 45.78515625 C-39.63427599 38.04878668 -41.90105748 31.54709178 -41.71875 21.54296875 C-40.86613761 13.99379652 -36.90841844 7.76091915 -31.33984375 2.6953125 C-22.4747133 -3.84510664 -9.74069091 -5.7577389 0 0 Z " fill="#2C5E89" transform="translate(417.34375,174.77734375)"/>
<path d="M0 0 C2.31 0 4.62 0 7 0 C7.33 9.9 7.66 19.8 8 30 C13.445 25.05 13.445 25.05 19 20 C19.66 20 20.32 20 21 20 C21 19.34 21 18.68 21 18 C24.96 18 28.92 18 33 18 C28.2347969 22.9240432 23.11342667 27.44259642 18 32 C19.98684622 35.05122812 21.94178556 37.92884901 24.25 40.75 C26 43 26 43 26 45 C26.66 45 27.32 45 28 45 C29.5078125 46.96875 29.5078125 46.96875 31.125 49.5 C31.93324219 50.75296875 31.93324219 50.75296875 32.7578125 52.03125 C33.16773438 52.6809375 33.57765625 53.330625 34 54 C30.54804018 54.49670968 27.43915502 54.64999903 24 54 C21.11236769 51.77896683 19.32622423 49.04782255 17.375 46 C16.84777344 45.236875 16.32054687 44.47375 15.77734375 43.6875 C14.48656924 41.81000981 13.23073103 39.91716154 12 38 C9.97642594 38.76531099 9.97642594 38.76531099 8 40 C7.29211565 43.33975372 7.29211565 43.33975372 7.25 47.125 C7.19328125 48.40632813 7.1365625 49.68765625 7.078125 51.0078125 C7.05234375 51.99523437 7.0265625 52.98265625 7 54 C4.69 54 2.38 54 0 54 C0 36.18 0 18.36 0 0 Z " fill="#275A86" transform="translate(300,173)"/>
<path d="M0 0 C2.64 0 5.28 0 8 0 C10.97 7.26 13.94 14.52 17 22 C21.13789555 13.75819246 21.13789555 13.75819246 24.8125 5.375 C25.23144531 4.35148438 25.65039062 3.32796875 26.08203125 2.2734375 C26.38496094 1.52320313 26.68789063 0.77296875 27 0 C29.64 0 32.28 0 35 0 C14.83550031 50.44299979 14.83550031 50.44299979 8 55 C5.80859375 55.23046875 5.80859375 55.23046875 3.4375 55.1875 C2.65246094 55.18105469 1.86742187 55.17460937 1.05859375 55.16796875 C-1 55 -1 55 -3 54 C-2.25 49.25 -2.25 49.25 0 47 C3.125 46.875 3.125 46.875 6 47 C7.0459834 45.18089843 8.06072388 43.34381572 9.0625 41.5 C9.63097656 40.4790625 10.19945312 39.458125 10.78515625 38.40625 C13.89129067 29.69708853 9.0733896 21.98687363 5.4375 14.125 C4.41231498 11.87899365 3.39002135 9.63166451 2.37109375 7.3828125 C1.6893811 5.90385498 1.6893811 5.90385498 0.99389648 4.39501953 C0 2 0 2 0 0 Z " fill="#2D5E89" transform="translate(336,191)"/>
<path d="M0 0 C2.92531066 1.07997023 5.29977204 2.39986491 8 4 C7.1875 5.9375 7.1875 5.9375 6 8 C5.01 8.33 4.02 8.66 3 9 C2.401875 8.690625 1.80375 8.38125 1.1875 8.0625 C-1.66673222 6.67615864 -3.86398923 6.79547756 -7 7 C-7.99 7.495 -7.99 7.495 -9 8 C-9 9.65 -9 11.3 -9 13 C-8.27554687 13.17015625 -7.55109375 13.3403125 -6.8046875 13.515625 C-1.11513972 14.94180498 3.4292887 16.27126184 8 20 C9.61540873 23.23081745 9.5896275 26.50759098 9 30 C7.04342803 33.52787301 4.89144937 35.70285021 1 37 C-5.71019726 37.83430517 -10.07616215 37.02486488 -15.6015625 33.09375 C-16.06304687 32.7328125 -16.52453125 32.371875 -17 32 C-15.35 30.35 -13.7 28.7 -12 27 C-11.34 27.66 -10.68 28.32 -10 29 C-7.33050591 29.24315656 -7.33050591 29.24315656 -4.375 29.125 C-3.37210937 29.10695312 -2.36921875 29.08890625 -1.3359375 29.0703125 C-0.56507813 29.04710937 0.20578125 29.02390625 1 29 C1.33 27.35 1.66 25.7 2 24 C-0.83302852 22.43894347 -3.25344778 21.68966421 -6.4375 21.1875 C-10.90437594 20.27499157 -13.07169975 18.56886593 -16 15 C-16.33 14.67 -16.66 14.34 -17 14 C-17.39439054 9.89833841 -17.45004791 7.6983502 -15.1875 4.1875 C-10.40377138 -0.59622862 -6.47737459 -0.82040385 0 0 Z " fill="#2A5C88" transform="translate(488,191)"/>
<path d="M0 0 C2.64 0 5.28 0 8 0 C8 3.63 8 7.26 8 11 C10.97 11 13.94 11 17 11 C17 13.31 17 15.62 17 18 C14.03 18 11.06 18 8 18 C8.08681813 21.27214531 8.19367665 24.54149505 8.3125 27.8125 C8.33505859 28.74126953 8.35761719 29.67003906 8.38085938 30.62695312 C8.41630859 31.51962891 8.45175781 32.41230469 8.48828125 33.33203125 C8.51446533 34.15421143 8.54064941 34.9763916 8.56762695 35.82348633 C9.09451434 38.47577376 9.87229419 39.37270672 12 41 C14.60611077 41.72197162 14.60611077 41.72197162 17 42 C17 43.65 17 45.3 17 47 C13.85088521 48.57455739 11.47991184 48.34799118 8 48 C3.69160911 45.15483621 1.55755559 42.87400492 0 38 C-0.22705078 35.50463867 -0.22705078 35.50463867 -0.1953125 32.91796875 C-0.18886719 31.98662109 -0.18242187 31.05527344 -0.17578125 30.09570312 C-0.15902344 29.13599609 -0.14226562 28.17628906 -0.125 27.1875 C-0.11597656 26.20845703 -0.10695313 25.22941406 -0.09765625 24.22070312 C-0.07417182 21.81354939 -0.0413284 19.40690257 0 17 C-1.32 17 -2.64 17 -4 17 C-4 15.02 -4 13.04 -4 11 C-2.68 11 -1.36 11 0 11 C0 7.37 0 3.74 0 0 Z " fill="#2E608A" transform="translate(508,180)"/>
<path d="M0 0 C1.76923828 0.04060547 1.76923828 0.04060547 3.57421875 0.08203125 C4.47785156 0.11683594 5.38148438 0.15164062 6.3125 0.1875 C6.67908354 6.66380923 6.67908354 6.66380923 5 9.0625 C1.25363316 11.5600779 -2.31847537 11.49957319 -6.6875 11.1875 C-8.625 10 -8.625 10 -9.6875 8.1875 C-10.10387778 5.41164816 -10.16543508 3.89849176 -8.58203125 1.54296875 C-5.75495874 -0.47969962 -3.42324147 -0.10168044 0 0 Z " fill="#FAFBFC" transform="translate(448.6875,210.8125)"/>
<path d="M0 0 C-0.57575664 3.35250701 -1.59306263 4.93818629 -4.0625 7.25 C-4.88427734 8.03117188 -4.88427734 8.03117188 -5.72265625 8.828125 C-6.14417969 9.21484375 -6.56570312 9.6015625 -7 10 C-7.99 9.67 -8.98 9.34 -10 9 C-8.13405729 4.41995879 -5.20913241 0 0 0 Z " fill="#55B1CA" transform="translate(159,241)"/>
<path d="M0 0 C-0.57575664 3.35250701 -1.59306263 4.93818629 -4.0625 7.25 C-4.88427734 8.03117188 -4.88427734 8.03117188 -5.72265625 8.828125 C-6.14417969 9.21484375 -6.56570312 9.6015625 -7 10 C-7.99 9.67 -8.98 9.34 -10 9 C-8.13405729 4.41995879 -5.20913241 0 0 0 Z " fill="#51B0C9" transform="translate(187,241)"/>
<path d="M0 0 C-0.57575664 3.35250701 -1.59306263 4.93818629 -4.0625 7.25 C-4.88427734 8.03117188 -4.88427734 8.03117188 -5.72265625 8.828125 C-6.14417969 9.21484375 -6.56570312 9.6015625 -7 10 C-7.99 9.67 -8.98 9.34 -10 9 C-8.13405729 4.41995879 -5.20913241 0 0 0 Z " fill="#51AFC9" transform="translate(173,241)"/>
<path d="M0 0 C0 3 0 3 -1.42578125 4.60546875 C-2.35970703 5.38857422 -2.35970703 5.38857422 -3.3125 6.1875 C-3.92738281 6.71730469 -4.54226562 7.24710937 -5.17578125 7.79296875 C-7 9 -7 9 -10 9 C-9.35875684 3.22881158 -5.59674318 0 0 0 Z " fill="#54B1CA" transform="translate(187,254)"/>
<path d="M0 0 C-1.5577308 3.82352106 -3.91595258 6.29205593 -7 9 C-7.99 9 -8.98 9 -10 9 C-9.35875684 3.22881158 -5.59674318 0 0 0 Z " fill="#4CADC8" transform="translate(173,254)"/>
<path d="M0 0 C-1.5577308 3.82352106 -3.91595258 6.29205593 -7 9 C-7.99 9 -8.98 9 -10 9 C-9.35875684 3.22881158 -5.59674318 0 0 0 Z " fill="#4EAEC8" transform="translate(145,254)"/>
<path d="M0 0 C0.99 0.33 1.98 0.66 3 1 C1.03681826 4.53372712 -1.04070881 7.24479785 -4 10 C-4.99 9.67 -5.98 9.34 -7 9 C-5.44499019 5.18315774 -2.96404505 2.80804268 0 0 Z " fill="#4DAEC8" transform="translate(198,241)"/>
<path d="M0 0 C-0.47241991 4.25177923 -2.84964071 6.29969203 -6 9 C-6.99 9 -7.98 9 -9 9 C-8.44706396 4.02357564 -5.06735917 0 0 0 Z " fill="#4BADC7" transform="translate(158,254)"/>
<path d="M0 0 C-0.55550695 3.59905908 -1.74887248 4.99909799 -4.5625 7.25 C-5.20316406 7.77078125 -5.84382812 8.2915625 -6.50390625 8.828125 C-6.99761719 9.21484375 -7.49132812 9.6015625 -8 10 C-8 6 -8 6 -6.7578125 4.296875 C-6.21898437 3.78640625 -5.68015625 3.2759375 -5.125 2.75 C-4.59132812 2.22921875 -4.05765625 1.7084375 -3.5078125 1.171875 C-2 0 -2 0 0 0 Z " fill="#42A9C4" transform="translate(144,241)"/>
</svg>
